<svg width="13" height="7" viewBox="0 0 13 7" fill="none" xmlns="http://www.w3.org/2000/svg">
<path d="M4.22834 1.85511C4.20561 1.62595 4.10807 1.44792 3.93572 1.32102C3.76338 1.19413 3.52947 1.13068 3.23402 1.13068C3.03326 1.13068 2.86375 1.15909 2.7255 1.21591C2.58724 1.27083 2.48118 1.34754 2.40732 1.44602C2.33535 1.54451 2.29936 1.65625 2.29936 1.78125C2.29557 1.88542 2.31735 1.97633 2.3647 2.05398C2.41394 2.13163 2.48118 2.19886 2.56641 2.25568C2.65163 2.31061 2.75012 2.3589 2.86186 2.40057C2.9736 2.44034 3.09292 2.47443 3.21982 2.50284L3.74254 2.62784C3.99633 2.68466 4.22929 2.76042 4.44141 2.85511C4.65353 2.94981 4.83724 3.06629 4.99254 3.20455C5.14785 3.3428 5.26811 3.50568 5.35334 3.69318C5.44046 3.88068 5.48497 4.09564 5.48686 4.33807C5.48497 4.69413 5.39406 5.00284 5.21413 5.2642C5.0361 5.52367 4.77853 5.72538 4.44141 5.86932C4.10618 6.01136 3.70182 6.08239 3.22834 6.08239C2.75864 6.08239 2.34955 6.01042 2.00107 5.86648C1.65447 5.72254 1.38364 5.50947 1.18857 5.22727C0.995384 4.94318 0.894058 4.59186 0.884588 4.1733H2.07493C2.08819 4.36837 2.14406 4.53125 2.24254 4.66193C2.34292 4.79072 2.47644 4.88826 2.64311 4.95455C2.81167 5.01894 3.00201 5.05114 3.21413 5.05114C3.42247 5.05114 3.60334 5.02083 3.75675 4.96023C3.91205 4.89962 4.03232 4.81534 4.11754 4.70739C4.20277 4.59943 4.24538 4.47538 4.24538 4.33523C4.24538 4.20455 4.20656 4.0947 4.12891 4.00568C4.05315 3.91667 3.94141 3.84091 3.79368 3.77841C3.64785 3.71591 3.46887 3.65909 3.25675 3.60795L2.62322 3.44886C2.13269 3.32955 1.74538 3.14299 1.46129 2.8892C1.1772 2.63542 1.0361 2.29356 1.038 1.86364C1.0361 1.51136 1.12985 1.2036 1.31925 0.940341C1.51054 0.677083 1.77285 0.471591 2.10618 0.323864C2.43951 0.176136 2.8183 0.102273 3.24254 0.102273C3.67436 0.102273 4.05125 0.176136 4.37322 0.323864C4.69709 0.471591 4.94898 0.677083 5.12891 0.940341C5.30883 1.2036 5.40163 1.50852 5.40732 1.85511H4.22834ZM9.47053 1.85511C9.4478 1.62595 9.35026 1.44792 9.17791 1.32102C9.00556 1.19413 8.77166 1.13068 8.47621 1.13068C8.27545 1.13068 8.10594 1.15909 7.96768 1.21591C7.82943 1.27083 7.72337 1.34754 7.6495 1.44602C7.57753 1.54451 7.54155 1.65625 7.54155 1.78125C7.53776 1.88542 7.55954 1.97633 7.60689 2.05398C7.65613 2.13163 7.72337 2.19886 7.80859 2.25568C7.89382 2.31061 7.99231 2.3589 8.10405 2.40057C8.21579 2.44034 8.33511 2.47443 8.462 2.50284L8.98473 2.62784C9.23852 2.68466 9.47147 2.76042 9.68359 2.85511C9.89572 2.94981 10.0794 3.06629 10.2347 3.20455C10.39 3.3428 10.5103 3.50568 10.5955 3.69318C10.6826 3.88068 10.7272 4.09564 10.729 4.33807C10.7272 4.69413 10.6362 5.00284 10.4563 5.2642C10.2783 5.52367 10.0207 5.72538 9.68359 5.86932C9.34837 6.01136 8.94401 6.08239 8.47053 6.08239C8.00083 6.08239 7.59174 6.01042 7.24325 5.86648C6.89666 5.72254 6.62583 5.50947 6.43075 5.22727C6.23757 4.94318 6.13625 4.59186 6.12678 4.1733H7.31712C7.33037 4.36837 7.38625 4.53125 7.48473 4.66193C7.58511 4.79072 7.71863 4.88826 7.8853 4.95455C8.05386 5.01894 8.2442 5.05114 8.45632 5.05114C8.66465 5.05114 8.84553 5.02083 8.99893 4.96023C9.15424 4.89962 9.2745 4.81534 9.35973 4.70739C9.44496 4.59943 9.48757 4.47538 9.48757 4.33523C9.48757 4.20455 9.44875 4.0947 9.37109 4.00568C9.29534 3.91667 9.18359 3.84091 9.03587 3.77841C8.89003 3.71591 8.71106 3.65909 8.49893 3.60795L7.86541 3.44886C7.37488 3.32955 6.98757 3.14299 6.70348 2.8892C6.41939 2.63542 6.27829 2.29356 6.28018 1.86364C6.27829 1.51136 6.37204 1.2036 6.56143 0.940341C6.75272 0.677083 7.01503 0.471591 7.34837 0.323864C7.6817 0.176136 8.06049 0.102273 8.48473 0.102273C8.91655 0.102273 9.29344 0.176136 9.61541 0.323864C9.93928 0.471591 10.1912 0.677083 10.3711 0.940341C10.551 1.2036 10.6438 1.50852 10.6495 1.85511H9.47053ZM12.2411 6.07386C12.0536 6.07386 11.8926 6.00758 11.7582 5.875C11.6256 5.74053 11.5593 5.57955 11.5593 5.39205C11.5593 5.20644 11.6256 5.04735 11.7582 4.91477C11.8926 4.7822 12.0536 4.71591 12.2411 4.71591C12.4229 4.71591 12.582 4.7822 12.7184 4.91477C12.8548 5.04735 12.9229 5.20644 12.9229 5.39205C12.9229 5.51705 12.8907 5.63163 12.8263 5.7358C12.7638 5.83807 12.6815 5.92045 12.5792 5.98295C12.4769 6.04356 12.3642 6.07386 12.2411 6.07386Z" fill="#FA8128"/>
</svg>
