<svg width="8" height="12" viewBox="0 0 8 12" fill="none" xmlns="http://www.w3.org/2000/svg">
<path d="M0.0480625 10.76C0.0480625 10.664 0.106729 10.5253 0.224063 10.344C0.352063 10.152 0.554729 9.87467 0.832063 9.512C1.05606 9.24533 1.22673 9.01067 1.34406 8.808C1.61073 8.31733 1.91473 7.8 2.25606 7.256C2.5974 6.712 2.81073 6.37067 2.89606 6.232C2.99206 6.072 3.2374 5.672 3.63206 5.032C4.0374 4.38133 4.39473 3.76267 4.70406 3.176C4.83206 2.94133 4.92806 2.71733 4.99206 2.504C5.06673 2.29067 5.10406 2.12533 5.10406 2.008C5.10406 1.624 4.8054 1.432 4.20806 1.432C3.60006 1.432 2.97606 1.45867 2.33606 1.512C1.63206 1.55467 1.08806 1.576 0.704063 1.576C0.693396 1.576 0.661396 1.576 0.608063 1.576C0.565396 1.576 0.544063 1.55467 0.544063 1.512V0.728C0.544063 0.706666 0.565396 0.685333 0.608063 0.664C0.661396 0.631999 0.704063 0.615999 0.736063 0.615999C0.800063 0.615999 0.869396 0.621333 0.944063 0.632C1.0294 0.642666 1.0934 0.653333 1.13606 0.664C1.32806 0.717333 1.53606 0.743999 1.76006 0.743999C2.12273 0.743999 2.4054 0.701333 2.60806 0.615999L6.76806 0.632C6.8214 0.621333 6.93873 0.599999 7.12006 0.568C7.31206 0.525333 7.40806 0.498666 7.40806 0.488C7.4294 0.488 7.46673 0.530666 7.52006 0.615999C7.5734 0.690666 7.61073 0.754666 7.63206 0.808L7.64806 0.856L7.63206 0.903999C7.34406 1.20267 7.0934 1.50667 6.88006 1.816C6.66673 2.11467 6.3894 2.54133 6.04806 3.096C6.02673 3.13867 5.93606 3.29333 5.77606 3.56C5.7334 3.63467 5.6854 3.72533 5.63206 3.832C5.5894 3.93867 5.5574 4.01333 5.53606 4.056C5.40806 4.344 5.3014 4.55733 5.21606 4.696C5.13073 4.83467 5.01873 4.952 4.88006 5.048L3.79206 7.032C3.72806 7.032 3.56806 7.21867 3.31206 7.592C3.06673 7.95467 2.8214 8.33867 2.57606 8.744C2.33073 9.14933 2.20806 9.384 2.20806 9.448C2.20806 9.62933 2.7574 9.72 3.85606 9.72C4.24006 9.72 4.7094 9.70933 5.26406 9.688C5.33873 9.77333 5.46673 9.816 5.64806 9.816C5.8294 9.80533 5.93606 9.8 5.96806 9.8C6.00006 9.8 6.03206 9.76267 6.06406 9.688H7.24806C7.3974 9.688 7.47206 9.93333 7.47206 10.424C7.47206 10.616 7.45073 10.776 7.40806 10.904C7.3654 11.0213 7.27473 11.08 7.13606 11.08C6.89073 11.08 6.5334 11.048 6.06406 10.984C5.61606 10.92 5.29073 10.888 5.08806 10.888C4.73606 10.888 4.38406 10.904 4.03206 10.936C3.20006 10.968 2.68806 10.984 2.49606 10.984L1.63206 10.968L1.52006 10.888H0.640063C0.629396 10.9307 0.586729 10.9733 0.512063 11.016C0.437396 11.0587 0.384063 11.08 0.352063 11.08C0.288063 11.08 0.218729 11.048 0.144063 10.984C0.0800625 10.9093 0.0480625 10.8347 0.0480625 10.76ZM5.58406 1.192H5.68006C5.77606 1.192 5.87206 1.16533 5.96806 1.112C5.9574 1.03733 5.89873 1 5.79206 1C5.60006 1 5.32806 1.03733 4.97606 1.112L5.58406 1.192ZM6.06406 1.304C6.13873 1.34667 6.17606 1.416 6.17606 1.512L6.56006 1.304V1.192L6.38406 1.304L6.46406 1.112L6.38406 1.096C6.29873 1.096 6.23473 1.112 6.19206 1.144C6.1494 1.176 6.10673 1.22933 6.06406 1.304ZM6.01606 2.008C6.11206 2.008 6.17606 1.98667 6.20806 1.944C6.25073 1.90133 6.27206 1.83733 6.27206 1.752L6.25606 1.576L5.87206 1.992L6.01606 2.008ZM6.00006 2.296C5.85073 2.296 5.72806 2.31733 5.63206 2.36C5.54673 2.392 5.50406 2.47733 5.50406 2.616C5.61073 2.616 5.7174 2.58933 5.82406 2.536C5.9414 2.472 6.00006 2.392 6.00006 2.296ZM5.71206 2.776C5.6374 2.776 5.5734 2.80267 5.52006 2.856C5.4774 2.89867 5.45606 2.95733 5.45606 3.032C5.53073 3.032 5.59473 3.016 5.64806 2.984C5.71206 2.94133 5.74406 2.89867 5.74406 2.856C5.74406 2.824 5.7334 2.79733 5.71206 2.776ZM5.39206 3.16C5.2854 3.16 5.20006 3.21867 5.13606 3.336C5.08273 3.45333 5.05606 3.58133 5.05606 3.72C5.16273 3.72 5.23206 3.69333 5.26406 3.64C5.29606 3.58667 5.32273 3.50133 5.34406 3.384C5.3654 3.26667 5.40806 3.19733 5.47206 3.176C5.4614 3.16533 5.4454 3.16 5.42406 3.16C5.4134 3.16 5.40273 3.16 5.39206 3.16ZM5.10406 3.832C5.0294 3.832 4.95473 3.85333 4.88006 3.896C4.8054 3.93867 4.76806 3.99733 4.76806 4.072L4.78406 4.184C4.9974 4.088 5.10406 3.97067 5.10406 3.832ZM2.91206 7.128C3.01873 7.096 3.22673 6.87733 3.53606 6.472C3.8454 6.056 4.1334 5.624 4.40006 5.176C4.6774 4.71733 4.81606 4.43467 4.81606 4.328C4.65606 4.328 4.18673 4.96267 3.40806 6.232C3.34406 6.328 3.25873 6.44533 3.15206 6.584C3.05606 6.72267 2.97606 6.83467 2.91206 6.92V7.128ZM2.94406 7.304C2.89073 7.304 2.8374 7.32 2.78406 7.352C2.73073 7.384 2.70406 7.42667 2.70406 7.48L2.72006 7.528C2.8694 7.50667 2.94406 7.432 2.94406 7.304ZM2.56006 7.704C2.50673 7.704 2.46406 7.72533 2.43206 7.768C2.41073 7.81067 2.40006 7.85867 2.40006 7.912L2.41606 8.024C2.4694 7.992 2.50673 7.94933 2.52806 7.896C2.56006 7.832 2.58673 7.768 2.60806 7.704H2.56006ZM2.33606 8.296C2.27206 8.296 2.2134 8.31733 2.16006 8.36C2.1174 8.40267 2.09606 8.456 2.09606 8.52H2.33606V8.296ZM1.98406 8.696C1.95206 8.696 1.91473 8.71733 1.87206 8.76C1.84006 8.80267 1.82406 8.85067 1.82406 8.904L2.03206 8.712L1.98406 8.696ZM1.63206 9.208H1.72806V9.096L1.63206 9.208ZM1.34406 9.784L1.63206 9.512L1.52006 9.4L1.23206 9.688L1.34406 9.784ZM1.37606 10.088C1.31206 10.088 1.23206 10.104 1.13606 10.136C1.04006 10.168 0.992063 10.2213 0.992063 10.296C1.1094 10.296 1.2854 10.264 1.52006 10.2C1.52006 10.1573 1.49873 10.1307 1.45606 10.12C1.42406 10.0987 1.3974 10.088 1.37606 10.088ZM5.71206 10.168C5.3814 10.168 5.2054 10.2373 5.18406 10.376H5.96806C6.04273 10.376 6.08006 10.312 6.08006 10.184L5.71206 10.168ZM2.78406 10.184C2.6134 10.184 2.49073 10.2 2.41606 10.232C2.3414 10.2533 2.27206 10.3333 2.20806 10.472C2.2934 10.4613 2.44273 10.4453 2.65606 10.424C2.8694 10.4027 3.01873 10.36 3.10406 10.296C3.0294 10.2213 2.92273 10.184 2.78406 10.184ZM2.08006 10.184C1.93073 10.184 1.80273 10.2053 1.69606 10.248C1.60006 10.2907 1.48273 10.3653 1.34406 10.472C1.8774 10.472 2.20806 10.3813 2.33606 10.2L2.08006 10.184ZM3.40806 10.2C3.35473 10.2 3.3014 10.2373 3.24806 10.312C3.2054 10.3867 3.18406 10.4507 3.18406 10.504C3.51473 10.504 3.8934 10.4827 4.32006 10.44C4.7574 10.3867 5.0134 10.3067 5.08806 10.2H3.40806ZM6.46406 10.248C6.28273 10.248 6.18673 10.2907 6.17606 10.376H6.46406V10.248Z" fill="white"/>
</svg>
